<svg version="1.1" id="Capa_1" xmlns="http://www.w3.org/2000/svg" x="0" y="0" viewBox="0 0 512.001 512.001" xml:space="preserve"><path d="M256.005 12.733a16.486 16.486 0 008.372-2.298C272.375 5.726 286.098 0 305.547 0c37.319 0 66.067 16.516 66.067 16.516l-16.516 16.516c17.752 4.734 27.871 7.57 47.369 17.786 68.569 35.927 101.276 114.343 101.276 114.343h-33.032C512 231.226 512 322.065 512 322.065l-24.774-8.258s0 74.323-33.032 123.871l-24.774-16.516s-24.774 41.29-66.065 66.065l-16.516-16.516s-41.29 33.032-90.839 41.29c-49.548-8.258-90.839-41.29-90.839-41.29l-16.516 16.516c-41.29-24.774-66.065-66.065-66.065-66.065l-24.774 16.516C24.775 388.13 24.775 313.807 24.775 313.807L.001 322.065s0-90.839 41.29-156.903H8.259S40.966 86.746 109.535 50.819c19.498-10.216 29.617-13.052 47.369-17.786l-16.516-16.516S169.135.001 206.455.001c19.449 0 33.172 5.726 41.17 10.436a16.486 16.486 0 008.372 2.298" fill="#d26437"/><path d="M187.22 91.077s23.877-48.754 64.061-79.097c-1.255-.379-2.491-.858-3.657-1.544C239.627 5.726 225.904 0 206.455 0c-37.319 0-66.067 16.516-66.067 16.516l16.516 16.516c-17.752 4.734-27.871 7.57-47.369 17.786C40.966 86.745 8.259 165.161 8.259 165.161h33.032C.001 231.226.001 322.065.001 322.065l24.774-8.258s0 74.323 33.032 123.871l24.774-16.516s24.774 41.29 66.065 66.065l16.516-16.516s41.29 33.032 90.839 41.29c0-.001-59.871-24.775-68.781-420.924z" fill="#b44632"/><path d="M410.232 50.111c19.546-3.79 37.454 12.093 35.567 31.913-2.343 24.606-20.422 67.997-45.196 93.546l-79.57-80.086c30.489-24.202 68.359-41.332 89.199-45.373z" fill="#ebaf4b"/><path d="M342.607 117.198c25.356-19.382 62.841-44.879 73.223-45.922 11.932-1.199 19.371 15.26 14.706 33.023-4.05 15.422-19.498 43.71-34.876 66.296l-53.053-53.397z" fill="#e18c46"/><path d="M101.77 50.111c-19.546-3.79-37.454 12.093-35.567 31.913 2.343 24.606 20.422 67.997 45.196 93.546l79.57-80.086C160.48 71.282 122.61 54.152 101.77 50.111z" fill="#ebaf4b"/><path d="M169.395 117.198c-25.356-19.382-62.841-44.879-73.223-45.922-11.932-1.199-19.371 15.26-14.706 33.023 4.05 15.422 19.498 43.71 34.876 66.296l53.053-53.397z" fill="#e18c46"/><path d="M355.098 99.097c-32.593-25.35-99.097 16.516-99.097 16.516s-66.504-41.866-99.097-16.516c-74.323 57.806-90.839 222.968-82.581 256 6.009 24.034 57.806 66.065 115.613 82.581h132.129c57.806-16.516 109.604-58.546 115.613-82.581 8.258-33.032-8.258-198.194-82.58-256z" fill="#ffc850"/><path d="M125.236 403.816c-6.343-39.607 8.658-215.343 61.984-312.739-11.211-.54-21.899 1.473-30.316 8.02-74.323 57.806-90.839 222.968-82.581 256 3.617 14.469 23.889 35.439 52.017 53.458-.424-1.611-.862-3.229-1.104-4.739z" fill="#ebaf4b"/><path d="M437.678 313.701c-6.009 24.034-57.806 66.065-115.613 82.581H189.936c-57.806-16.516-109.604-58.546-115.613-82.581-.376-1.501-.68-3.363-.95-5.388-1.635 21.488-1.146 38.401.95 46.784 6.009 24.034 57.806 66.065 115.613 82.581h132.129c57.806-16.516 109.604-58.546 115.613-82.581 2.096-8.383 2.585-25.296.95-46.784-.269 2.024-.574 3.886-.95 5.388z" fill="#faebc8"/><path d="M187.462 424.27c4.287 26.336 27.139 46.44 54.686 46.44h27.705c27.433 0 50.211-19.938 54.633-46.113l-68.48-11.693-68.544 11.366z" fill="#f5dcb4"/><path d="M301.42 346.839c-19.155 0-35.92 7.742-45.419 19.356-9.499-11.614-26.265-19.356-45.419-19.356-29.645 0-53.677 18.486-53.677 41.29s24.032 41.29 53.677 41.29c19.155 0 35.92-7.742 45.419-19.356 9.499 11.614 26.265 19.356 45.419 19.356 29.645 0 53.677-18.486 53.677-41.29s-24.031-41.29-53.677-41.29z" fill="#faebc8"/><path d="M298.017 437.411c-14.427 0-28.016-4.782-39.298-13.827-1.597-1.282-3.831-1.282-5.444 0-11.274 9.044-24.863 13.827-39.29 13.827-34.855 0-63.21-28.56-63.21-63.665 0-4.56 3.694-8.258 8.258-8.258s8.258 3.698 8.258 8.258c0 26 20.944 47.149 46.694 47.149 10.629 0 20.645-3.524 28.96-10.198 7.694-6.161 18.427-6.161 26.105 0 8.323 6.673 18.339 10.198 28.968 10.198 25.75 0 46.694-21.149 46.694-47.149 0-4.56 3.694-8.258 8.258-8.258s8.258 3.698 8.258 8.258c-.001 35.105-28.356 63.665-63.211 63.665z" fill="#d4af91"/><path d="M211.445 361.269l17.541 14.625c15.648 13.046 38.383 13.046 54.03 0l17.541-14.624c7.771-6.479 3.24-19.128-6.877-19.128l-75.358-.001c-10.117 0-14.648 12.649-6.877 19.128z" fill="#5d5360"/><path d="M256.001 214.71a8.256 8.256 0 01-8.258-8.258v-67.419c0-4.56 3.694-8.258 8.258-8.258s8.258 3.698 8.258 8.258v67.419a8.256 8.256 0 01-8.258 8.258z" fill="#ffdc64"/><path d="M173.42 297.29c-13.682 0-24.774-11.092-24.774-24.774v-8.258c0-13.682 11.092-24.774 24.774-24.774s24.774 11.092 24.774 24.774v8.258c.001 13.683-11.091 24.774-24.774 24.774z" fill="#4b3f4e"/><path d="M173.42 239.484v28.903c0 6.841 5.546 12.387 12.387 12.387s12.387-5.546 12.387-12.387v-4.129c.001-13.682-11.091-24.774-24.774-24.774z" fill="#5d5360"/><circle cx="173.421" cy="256" r="8.258" fill="#fff"/><path d="M338.582 297.29c-13.682 0-24.774-11.092-24.774-24.774v-8.258c0-13.682 11.092-24.774 24.774-24.774s24.774 11.092 24.774 24.774v8.258c0 13.683-11.092 24.774-24.774 24.774z" fill="#4b3f4e"/><path d="M338.582 239.484v28.903c0 6.841 5.546 12.387 12.387 12.387s12.387-5.546 12.387-12.387v-4.129c0-13.682-11.092-24.774-24.774-24.774z" fill="#5d5360"/><circle cx="338.581" cy="256" r="8.258" fill="#fff"/><path d="M260.953 374.633l-17.542-20.173c-2.924-3.363-4.101-7.929-3.9-12.319h-21.189c-10.117 0-14.648 12.649-6.878 19.128l17.541 14.625c11.942 9.957 27.993 12.257 41.891 7.016-3.49-2.142-6.867-4.763-9.923-8.277z" fill="#4b3f4e"/><path d="M74.324 313.701c-.376-1.501-.68-3.363-.95-5.388-1.635 21.488-1.146 38.401.95 46.784 3.617 14.469 23.889 35.438 52.017 53.458-.424-1.611-.862-3.229-1.104-4.739-1.26-7.866-1.661-21.163-1.104-38.088-26.974-17.692-46.288-37.94-49.809-52.027z" fill="#f5dcb4"/></svg>