<svg height="511pt" viewBox="0 -52 511.998 511" width="511pt" xmlns="http://www.w3.org/2000/svg"><path d="M177.207 335.477c-1.367-.293-2.723-.567-4.102-.88-31.867-7.23-57.57-18.421-78.304-31.757 11.535 29.496 31.414 71.285 53.054 76.5 33.868 8.156 29.344-43.844 29.344-43.844zm0 0" fill="#60b8ff"/><path d="M177.207 335.477c-1.367-.293-2.723-.567-4.102-.88-31.867-7.23-57.57-18.421-78.304-31.757 4.426 11.316 10.086 24.441 16.594 36.617 17.453 9.09 37.851 16.727 61.71 22.14.575.13 1.137.243 1.708.368 3.609-12.363 2.382-26.465 2.382-26.465zm0 0" fill="#22a7ff"/><path d="M421.469 170.883c-5.461 89.02-84.516 200.887-248.364 163.715C9.258 297.422 8.348 155.578 8.348 155.578S25.336 8.504 148.574 8.504c147.184 0 134.676 151.965 171.996 165.66 37.32 13.695 57.348-15.652 57.348-15.652s-62.992-59.715-14.422-117.133c0 0 1.649 37.41 26.328 46.926 21.844 8.425 25.258 30.797 25.258 30.797s14.797-19.188 41.504-14.125c22.387 4.246 47.066-19.961 47.066-19.961s-9.879 93.547-82.183 85.867" fill="#8bcaff"/><path d="M439.71 143.61a24.577 24.577 0 00-20.616 20.038c-15.067 84.774-94.086 178.41-245.989 143.95C44.09 278.324 16.098 184.156 10.027 145.44c-1.238 6.348-1.68 10.137-1.68 10.137s.91 141.844 164.758 179.02c163.848 37.172 242.903-74.696 248.364-163.715 72.304 7.68 82.183-85.867 82.183-85.867s-3.406 3.336-8.828 7.312c-8.508 21.805-24.758 46.758-55.113 51.281zm0 0" fill="#60b8ff"/><path d="M204.77 286.277c-87.254-31.593-75.348-118.78-75.348-118.78l-.012-.017c-24.722-12.484-42.793-33.851-70.09-33.132-34.59.91-50.972 21.23-50.972 21.23s.91 141.844 164.757 179.016c93.176 21.14 158.918-5.93 199.313-49.578-62.656 17.824-115.281 20.226-167.648 1.261zm0 0" fill="#ffe9c8"/><path d="M173.105 307.598C51.406 279.984 19.598 194.628 11.29 152.543c-1.965 1.832-2.941 3.035-2.941 3.035s.91 141.844 164.757 179.02c93.18 21.136 158.918-5.93 199.313-49.578-18.059 5.132-35.281 8.98-51.906 11.414-37.95 18.277-86.887 24.894-147.407 11.164zm0 0" fill="#ffdca7"/><path d="M156.07 250.688c-4.312 94.957 82.657 161.488 106.168 146.039 18.856-12.387-28.23-64.387-16.144-121.739" fill="#8bcaff"/><path d="M261.824 369.523c-19.511 12.82-79.035-26.074-104.414-91 11.281 79.72 83.692 132.094 104.828 118.204 6.887-4.524 4.973-14.34.36-27.77-.246.195-.5.387-.774.566zm0 0" fill="#60b8ff"/><path d="M507.754 77.852a7.534 7.534 0 00-8.543 1.39c-6.137 5.985-25.39 20.887-40.559 18.012-17.98-3.41-31.359 2.543-39.554 8.324-3.95-8.418-11.61-19.082-26.121-24.676-19.82-7.64-21.59-40.082-21.606-40.394a7.526 7.526 0 00-13.262-4.528c-21.91 25.895-26.125 56.41-12.191 88.243 6.844 15.629 16.437 27.808 22.227 34.336a44.172 44.172 0 01-8.333 6.304c-10.851 6.313-23.109 7.032-36.437 2.14-8.68-3.187-15.598-21.827-22.918-41.562C282.602 77.305 255.613 4.56 156.953.504c-4.144-.164-7.656 3.059-7.828 7.21a7.53 7.53 0 007.21 7.829c39.247 1.613 69.153 14.969 91.423 40.836 19.375 22.496 30.027 51.219 38.59 74.297 9.3 25.074 16.652 44.879 31.843 50.457 8.024 2.941 15.356 4.105 21.93 4.105 11.527 0 20.73-3.57 27.254-7.363 11.05-6.426 16.918-14.91 17.16-15.27a7.535 7.535 0 00-1.031-9.695c-.149-.144-15.05-14.488-23.969-35.113-8.902-20.586-8.82-39.852.207-57.48 3.746 12.792 11.563 28.359 27.817 34.624 17.406 6.715 20.492 24.313 20.609 25.016.977 6.402 9.434 8.602 13.398 3.461.122-.156 12.282-15.55 34.282-11.375 11.18 2.121 23.722-1.02 37.265-9.332-2.02 7.32-5.011 15.969-9.36 24.441-13.757 26.813-34.257 38.97-60.94 36.137-4.204-.445-8.047 2.813-8.305 7.024-1.848 30.101-12.301 61.039-29.434 87.117a7.527 7.527 0 002.156 10.422c3.434 2.253 8.172 1.27 10.422-2.157 17.137-26.086 28.082-56.699 31.239-86.976 29.422.511 52.918-14.805 68.254-44.7 12.046-23.476 14.703-47.593 14.812-48.609a7.531 7.531 0 00-4.203-7.558zM15.188 158.273c1.804-1.73 4.937-4.414 9.421-7.109 9.946-5.984 21.473-9.187 34.258-9.527 16.164-.442 28.856 8.191 43.54 18.164 13.077 8.883 27.906 18.953 46.808 22.504 2.863.535 5.687.78 8.453.78 27.64 0 49.637-24.452 50.648-25.597 2.75-3.105 2.461-7.847-.64-10.605a7.532 7.532 0 00-10.621.62c-.215.247-22.012 24.337-45.067 20.009-15.816-2.969-28.683-11.711-41.129-20.16-15.421-10.477-31.379-21.286-52.39-20.758-17.278.453-30.465 5.347-39.778 10.605 2.938-12.16 7.961-28.77 16.243-45.746 21.046-43.14 52.16-68.207 92.488-74.508a7.524 7.524 0 006.27-8.597 7.526 7.526 0 00-8.594-6.274C80.128 9.102 44.207 37.867 21.215 85.258 4.137 120.457.207 153.18.05 154.555c-.035.3-.051.61-.051.914.012 2.047.707 50.77 33.988 99.617 2.309 3.383 7.063 4.293 10.453 1.98a7.525 7.525 0 001.985-10.457c-26.176-38.414-30.524-77.554-31.239-88.336zm0 0"/><path d="M121.473 110.852c0 10.636 6.71 18.968 15.273 18.968 8.566 0 15.274-8.332 15.274-18.968 0-10.637-6.708-18.97-15.274-18.97-8.562-.003-15.273 8.333-15.273 18.97zm245.82 169.336c-28.094 30.359-65.781 48.757-109.273 53.449-5.293-17.442-8.813-36.844-4.594-56.86a7.525 7.525 0 00-14.727-3.101c-7.039 33.402 4.54 64.797 12.996 87.719 4.485 12.16 10.067 27.296 6.434 29.687-3.246 2.133-11.953 1.195-24.09-5.71-17.516-9.974-35.617-28.49-48.426-49.54-11.125-18.281-24.031-47.805-22.36-84.645a7.525 7.525 0 10-15.034-.683c-1.258 27.707 4.758 52.762 14.52 74.262-40.348-10.957-73.325-29.653-98.15-55.684a7.528 7.528 0 00-10.64-.254 7.528 7.528 0 00-.254 10.64c10.246 10.743 21.75 20.313 34.453 28.696 18.98 47.832 38.348 74.441 57.586 79.078 8.899 2.14 18.496 1.082 25.614-5.043 5.836-5.023 9.789-12.875 11.8-23.379 13.993 18.36 29.954 31.95 43.446 39.63 9.246 5.26 20.511 10.073 31.398 8.366 2.98-.468 5.871-1.496 8.399-3.156 13.629-8.953 7.047-26.805-.578-47.473a960.886 960.886 0 01-2.907-7.957c45.778-5.636 85.532-25.507 115.434-57.816a7.527 7.527 0 00-.414-10.637c-3.047-2.824-7.809-2.636-10.633.41zm-205.77 90.609c-1.074.922-4.335 3.719-12.265 1.808-11.5-2.77-25.496-21.359-39.43-51.894 18.008 9.113 37.969 16.227 59.79 21.297-.04 8.875-1.513 23.14-8.095 28.789zm0 0"/></svg>